<?xml version="1.0" standalone="no"?>
<!DOCTYPE svg PUBLIC "-//W3C//DTD SVG 20010904//EN"
 "http://www.w3.org/TR/2001/REC-SVG-20010904/DTD/svg10.dtd">
<svg version="1.0" xmlns="http://www.w3.org/2000/svg"
 width="1280.000000pt" height="1280.000000pt" viewBox="0 0 1280.000000 1280.000000"
 preserveAspectRatio="xMidYMid meet">
<metadata>
Created by potrace 1.15, written by Peter Selinger 2001-2017
</metadata>
<g transform="translate(0.000000,1280.000000) scale(0.100000,-0.100000)"
fill="#000000" stroke="none">
<path d="M1808 10226 c-63 -22 -88 -45 -114 -99 -58 -126 -5 -242 129 -279 29
-8 267 -61 529 -119 467 -101 478 -104 483 -129 4 -20 117 -1566 385 -5285 11
-154 23 -290 25 -302 8 -37 53 -81 103 -100 45 -17 181 -18 3432 -18 3614 0
3422 -3 3486 47 81 64 84 211 5 289 -75 75 230 69 -3397 69 l-3253 0 -5 52
c-6 57 -46 611 -46 641 0 16 165 17 3323 17 l3322 0 338 1918 c187 1054 341
1929 344 1943 4 23 1 28 -24 33 -15 3 -651 92 -1413 196 -762 105 -2280 314
-3375 465 -1094 151 -2190 301 -2435 335 -551 74 -490 63 -1178 214 -315 69
-585 126 -600 126 -15 -1 -44 -7 -64 -14z m2171 -776 c365 -49 666 -92 669
-94 2 -3 -7 -443 -22 -978 -14 -535 -26 -999 -26 -1030 l0 -58 -600 0 c-588 0
-600 0 -600 19 0 11 -36 517 -80 1124 -44 607 -80 1107 -80 1111 0 3 17 4 38
1 20 -3 336 -46 701 -95z m2121 -285 c552 -74 1006 -137 1009 -140 2 -3 -20
-393 -50 -868 l-54 -862 -1002 -3 -1003 -2 0 52 c0 29 11 449 25 933 14 484
25 913 25 953 0 69 1 72 23 72 13 0 475 -61 1027 -135z m2185 -293 c670 -91
720 -99 722 -117 2 -11 -23 -344 -55 -740 l-58 -720 -742 -3 -742 -2 0 28 c0
15 22 381 50 812 27 432 50 797 50 813 0 23 4 27 28 27 15 -1 351 -45 747 -98z
m1638 -221 c280 -38 510 -71 512 -72 1 -2 -48 -292 -111 -644 -62 -352 -114
-641 -114 -642 0 -2 -205 -3 -455 -3 l-455 0 0 24 c0 13 25 333 55 711 30 379
55 690 55 692 0 4 -72 13 513 -66z m-5338 -1793 c-3 -18 -12 -346 -21 -728 -8
-382 -17 -701 -20 -707 -3 -10 -112 -13 -503 -13 l-500 0 -5 53 c-4 28 -26
338 -51 687 -24 349 -47 659 -51 688 l-5 52 580 0 580 0 -4 -32z m2392 -25
c-4 -32 -25 -359 -47 -728 -23 -368 -43 -676 -45 -682 -4 -10 -206 -13 -970
-13 l-965 0 0 53 c-1 106 31 1265 36 1345 l6 82 995 0 996 0 -6 -57z m1882 30
c0 -16 -26 -347 -57 -738 l-57 -710 -728 -3 -727 -2 0 22 c0 13 20 340 45 727
25 387 45 710 45 717 0 12 122 14 740 14 l740 0 -1 -27z m1276 5 c-3 -13 -61
-342 -130 -732 -69 -390 -128 -712 -131 -717 -6 -11 -724 -12 -724 -1 -1 4 25
337 57 740 l57 732 438 0 438 0 -5 -22z"/>
<path d="M10865 8920 c27 -12 35 -12 35 0 0 6 -12 10 -27 9 -25 0 -26 -1 -8
-9z"/>
<path d="M3790 3735 c-337 -72 -612 -318 -713 -640 -38 -121 -51 -221 -44
-343 8 -136 35 -241 97 -367 225 -462 784 -662 1246 -446 259 122 435 326 520
606 26 83 28 102 28 260 0 156 -3 177 -27 258 -54 176 -135 306 -270 433 -118
111 -253 187 -412 230 -82 23 -337 28 -425 9z"/>
<path d="M8726 3734 c-279 -60 -524 -251 -651 -509 -187 -380 -104 -833 207
-1120 69 -64 159 -125 255 -173 194 -98 480 -107 715 -22 235 85 450 288 548
518 53 125 74 231 74 377 -1 169 -25 271 -99 420 -133 267 -369 450 -657 509
-97 20 -298 20 -392 0z"/>
</g>
</svg>
